<svg xmlns="http://www.w3.org/2000/svg" width="17.138" height="17.059" viewBox="0 0 17.138 17.059">
  <g id="edit" transform="translate(0.5 0.639)">
    <g id="Group_5204" data-name="Group 5204">
      <path id="Path_4571" data-name="Path 4571" d="M14.767,47.612a.4.4,0,0,0-.4.4v3.538a1.2,1.2,0,0,1-1.2,1.2H1.992a1.2,1.2,0,0,1-1.2-1.2V41.164a1.2,1.2,0,0,1,1.2-1.2H5.531a.4.4,0,0,0,0-.8H1.992A2,2,0,0,0,0,41.164V51.548a2,2,0,0,0,1.992,1.992H13.173a2,2,0,0,0,1.992-1.992V48.01A.4.4,0,0,0,14.767,47.612Zm0,0" transform="translate(0 -37.621)" fill="#f58233" stroke="#f58233" stroke-width="1"/>
      <path id="Path_4572" data-name="Path 4572" d="M118.887.786a1.793,1.793,0,0,0-2.536,0L109.241,7.9a.4.4,0,0,0-.1.175l-.935,3.375a.4.4,0,0,0,.49.49L112.07,11a.4.4,0,0,0,.175-.1l7.109-7.109a1.8,1.8,0,0,0,0-2.536ZM110.11,8.154l5.818-5.818L117.8,4.212l-5.818,5.818Zm-.375.752,1.5,1.5-2.074.575Zm9.056-5.68-.423.423-1.877-1.877.423-.423a1,1,0,0,1,1.409,0l.468.468A1,1,0,0,1,118.791,3.226Zm0,0" transform="translate(-103.879 -0.261)" fill="#f58233" stroke="#f58233" stroke-width="1"/>
    </g>
  </g>
</svg>
